# xmcd
#
# Track frame offsets:
#	183
#	21608
#	56783
#	72583
#	85433
#	107708
#	124233
#	138108
#
# Disc length: 2231 seconds
#
# Revision: 1
# Processed by: cddbd v1.5.2PL0 Copyright (c) Steve Scherf et al.
# Submitted via: audiograbber 1.83.01
#
DISCID=7908b508
DTITLE=Waters Blues Band, Muddy - Unreleased in the west
DYEAR=1976
DGENRE=Blues
TTITLE0=Junior shuffle
TTITLE1=Floyd's guitar blues
TTITLE2=G.P.'s boogie
TTITLE3=Baby please don't go
TTITLE4=Soon forgotten
TTITLE5=Corinna Corinna
TTITLE6=Hoochie coochie man
TTITLE7=Howlin' wolf
EXTD=
EXTT0=
EXTT1=
EXTT2=
EXTT3=
EXTT4=
EXTT5=
EXTT6=
EXTT7=
PLAYORDER=
